<?xml version="1.0" encoding="utf-8"?>
<!-- Generator: Adobe Illustrator 28.0.0, SVG Export Plug-In . SVG Version: 6.00 Build 0)  -->
<svg version="1.1" id="Layer_1" xmlns="http://www.w3.org/2000/svg" xmlns:xlink="http://www.w3.org/1999/xlink" x="0px" y="0px"
	 viewBox="0 0 624.8 529.1" style="enable-background:new 0 0 624.8 529.1;" xml:space="preserve">
<style type="text/css">
	.st0{fill:#339989;}
</style>
<path class="st0" d="M426,215.4H210.7c-25,0-45.3-20.3-45.3-45.3v0c0-25,20.3-45.3,45.3-45.3H426c25,0,45.3,20.3,45.3,45.3v0
	C471.3,195.1,451,215.4,426,215.4z"/>
<path class="st0" d="M426,419.7H210.7c-25,0-45.3-20.3-45.3-45.3v0c0-25,20.3-45.3,45.3-45.3H426c25,0,45.3,20.3,45.3,45.3v0
	C471.3,399.4,451,419.7,426,419.7z"/>
<path class="st0" d="M349.9,317.5H134.7c-25,0-45.3-20.3-45.3-45.3v0c0-25,20.3-45.3,45.3-45.3h215.3c25,0,45.3,20.3,45.3,45.3v0
	C395.2,297.3,374.9,317.5,349.9,317.5z"/>
</svg>
